<svg width="920" height="520" class="viz">
  <g transform="translate(0,0)">
    <g class="day" transform="translate(0, 411)">
      <line x1="0" y1="60" x2="920" y2="60" class="axis"></line>
      <text class="label" dy="30">Saturday</text>
      <g class="hour" transform="translate(104, 0)" width="31">
        <line x1="0" y1="45" x2="0" y2="60" class="axis even"></line>
        <circle r="5.348008084903245" cy="25" class="day"></circle>
      </g>
      <g class="hour" transform="translate(138, 0)" width="31">
        <line x1="0" y1="50" x2="0" y2="60" class="axis odd"></line>
        <circle r="6.327848502189877" cy="25" class="day"></circle>
      </g>
      <g class="hour" transform="translate(172, 0)" width="31">
        <line x1="0" y1="45" x2="0" y2="60" class="axis even"></line>
        <circle r="0" cy="25" class="day"></circle>
      </g>
      <g class="hour" transform="translate(206, 0)" width="31">
        <line x1="0" y1="50" x2="0" y2="60" class="axis odd"></line>
        <circle r="0" cy="25" class="day"></circle>
      </g>
      <g class="hour" transform="translate(240, 0)" width="31">
        <line x1="0" y1="45" x2="0" y2="60" class="axis even"></line>
        <circle r="2.3917019244124247" cy="25" class="day"></circle>
      </g>
      <g class="hour" transform="translate(274, 0)" width="31">
        <line x1="0" y1="50" x2="0" y2="60" class="axis odd"></line>
        <circle r="3.382377298657882" cy="25" class="day"></circle>
      </g>
      <g class="hour" transform="translate(308, 0)" width="31">
        <line x1="0" y1="45" x2="0" y2="60" class="axis even"></line>
        <circle r="2.3917019244124247" cy="25" class="day"></circle>
      </g>
      <g class="hour" transform="translate(342, 0)" width="31">
        <line x1="0" y1="50" x2="0" y2="60" class="axis odd"></line>
        <circle r="4.142549249642578" cy="25" class="day"></circle>
      </g>
      <g class="hour" transform="translate(376, 0)" width="31">
        <line x1="0" y1="45" x2="0" y2="60" class="axis even"></line>
        <circle r="2.3917019244124247" cy="25" class="day"></circle>
      </g>
      <g class="hour" transform="translate(410, 0)" width="31">
        <line x1="0" y1="50" x2="0" y2="60" class="axis odd"></line>
        <circle r="4.783403848824849" cy="25" class="day"></circle>
      </g>
      <g class="hour" transform="translate(444, 0)" width="31">
        <line x1="0" y1="45" x2="0" y2="60" class="axis even"></line>
        <circle r="4.142549249642578" cy="25" class="day"></circle>
      </g>
      <g class="hour" transform="translate(478, 0)" width="31">
        <line x1="0" y1="50" x2="0" y2="60" class="axis odd"></line>
        <circle r="4.783403848824849" cy="25" class="day"></circle>
      </g>
      <g class="hour" transform="translate(512, 0)" width="31">
        <line x1="0" y1="45" x2="0" y2="60" class="axis even"></line>
        <circle r="4.142549249642578" cy="25" class="day"></circle>
      </g>
      <g class="hour" transform="translate(546, 0)" width="31">
        <line x1="0" y1="50" x2="0" y2="60" class="axis odd"></line>
        <circle r="2.3917019244124247" cy="25" class="day"></circle>
      </g>
      <g class="hour" transform="translate(580, 0)" width="31">
        <line x1="0" y1="45" x2="0" y2="60" class="axis even"></line>
        <circle r="0" cy="25" class="day"></circle>
      </g>
      <g class="hour" transform="translate(614, 0)" width="31">
        <line x1="0" y1="50" x2="0" y2="60" class="axis odd"></line>
        <circle r="0" cy="25" class="day"></circle>
      </g>
      <g class="hour" transform="translate(648, 0)" width="31">
        <line x1="0" y1="45" x2="0" y2="60" class="axis even"></line>
        <circle r="2.3917019244124247" cy="25" class="day"></circle>
      </g>
      <g class="hour" transform="translate(682, 0)" width="31">
        <line x1="0" y1="50" x2="0" y2="60" class="axis odd"></line>
        <circle r="2.3917019244124247" cy="25" class="day"></circle>
      </g>
      <g class="hour" transform="translate(716, 0)" width="31">
        <line x1="0" y1="45" x2="0" y2="60" class="axis even"></line>
        <circle r="0" cy="25" class="day"></circle>
      </g>
      <g class="hour" transform="translate(750, 0)" width="31">
        <line x1="0" y1="50" x2="0" y2="60" class="axis odd"></line>
        <circle r="0" cy="25" class="day"></circle>
      </g>
      <g class="hour" transform="translate(784, 0)" width="31">
        <line x1="0" y1="45" x2="0" y2="60" class="axis even"></line>
        <circle r="2.3917019244124247" cy="25" class="day"></circle>
      </g>
      <g class="hour" transform="translate(818, 0)" width="31">
        <line x1="0" y1="50" x2="0" y2="60" class="axis odd"></line>
        <circle r="4.142549249642578" cy="25" class="day"></circle>
      </g>
      <g class="hour" transform="translate(852, 0)" width="31">
        <line x1="0" y1="45" x2="0" y2="60" class="axis even"></line>
        <circle r="0" cy="25" class="day"></circle>
      </g>
      <g class="hour" transform="translate(886, 0)" width="31">
        <line x1="0" y1="50" x2="0" y2="60" class="axis odd"></line>
        <circle r="3.382377298657882" cy="25" class="day"></circle>
      </g>
    </g>

    <g class="day" transform="translate(0, 344)">
      <line x1="0" y1="60" x2="920" y2="60" class="axis"></line>
      <text class="label" dy="30">Friday</text>
      <g class="hour" transform="translate(104, 0)" width="31">
        <line x1="0" y1="45" x2="0" y2="60" class="axis even"></line>
        <circle r="3.382377298657882" cy="25" class="day"></circle>
      </g>
      <g class="hour" transform="translate(138, 0)" width="31">
        <line x1="0" y1="50" x2="0" y2="60" class="axis odd"></line>
        <circle r="4.142549249642578" cy="25" class="day"></circle>
      </g>
      <g class="hour" transform="translate(172, 0)" width="31">
        <line x1="0" y1="45" x2="0" y2="60" class="axis even"></line>
        <circle r="2.3917019244124247" cy="25" class="day"></circle>
      </g>
      <g class="hour" transform="translate(206, 0)" width="31">
        <line x1="0" y1="50" x2="0" y2="60" class="axis odd"></line>
        <circle r="0" cy="25" class="day"></circle>
      </g>
      <g class="hour" transform="translate(240, 0)" width="31">
        <line x1="0" y1="45" x2="0" y2="60" class="axis even"></line>
        <circle r="0" cy="25" class="day"></circle>
      </g>
      <g class="hour" transform="translate(274, 0)" width="31">
        <line x1="0" y1="50" x2="0" y2="60" class="axis odd"></line>
        <circle r="0" cy="25" class="day"></circle>
      </g>
      <g class="hour" transform="translate(308, 0)" width="31">
        <line x1="0" y1="45" x2="0" y2="60" class="axis even"></line>
        <circle r="2.3917019244124247" cy="25" class="day"></circle>
      </g>
      <g class="hour" transform="translate(342, 0)" width="31">
        <line x1="0" y1="50" x2="0" y2="60" class="axis odd"></line>
        <circle r="0" cy="25" class="day"></circle>
      </g>
      <g class="hour" transform="translate(376, 0)" width="31">
        <line x1="0" y1="45" x2="0" y2="60" class="axis even"></line>
        <circle r="0" cy="25" class="day"></circle>
      </g>
      <g class="hour" transform="translate(410, 0)" width="31">
        <line x1="0" y1="50" x2="0" y2="60" class="axis odd"></line>
        <circle r="2.3917019244124247" cy="25" class="day"></circle>
      </g>
      <g class="hour" transform="translate(444, 0)" width="31">
        <line x1="0" y1="45" x2="0" y2="60" class="axis even"></line>
        <circle r="2.3917019244124247" cy="25" class="day"></circle>
      </g>
      <g class="hour" transform="translate(478, 0)" width="31">
        <line x1="0" y1="50" x2="0" y2="60" class="axis odd"></line>
        <circle r="4.142549249642578" cy="25" class="day"></circle>
      </g>
      <g class="hour" transform="translate(512, 0)" width="31">
        <line x1="0" y1="45" x2="0" y2="60" class="axis even"></line>
        <circle r="0" cy="25" class="day"></circle>
      </g>
      <g class="hour" transform="translate(546, 0)" width="31">
        <line x1="0" y1="50" x2="0" y2="60" class="axis odd"></line>
        <circle r="2.3917019244124247" cy="25" class="day"></circle>
      </g>
      <g class="hour" transform="translate(580, 0)" width="31">
        <line x1="0" y1="45" x2="0" y2="60" class="axis even"></line>
        <circle r="3.382377298657882" cy="25" class="day"></circle>
      </g>
      <g class="hour" transform="translate(614, 0)" width="31">
        <line x1="0" y1="50" x2="0" y2="60" class="axis odd"></line>
        <circle r="0" cy="25" class="day"></circle>
      </g>
      <g class="hour" transform="translate(648, 0)" width="31">
        <line x1="0" y1="45" x2="0" y2="60" class="axis even"></line>
        <circle r="0" cy="25" class="day"></circle>
      </g>
      <g class="hour" transform="translate(682, 0)" width="31">
        <line x1="0" y1="50" x2="0" y2="60" class="axis odd"></line>
        <circle r="2.3917019244124247" cy="25" class="day"></circle>
      </g>
      <g class="hour" transform="translate(716, 0)" width="31">
        <line x1="0" y1="45" x2="0" y2="60" class="axis even"></line>
        <circle r="2.3917019244124247" cy="25" class="day"></circle>
      </g>
      <g class="hour" transform="translate(750, 0)" width="31">
        <line x1="0" y1="50" x2="0" y2="60" class="axis odd"></line>
        <circle r="7.175105773237274" cy="25" class="day"></circle>
      </g>
      <g class="hour" transform="translate(784, 0)" width="31">
        <line x1="0" y1="45" x2="0" y2="60" class="axis even"></line>
        <circle r="4.783403848824849" cy="25" class="day"></circle>
      </g>
      <g class="hour" transform="translate(818, 0)" width="31">
        <line x1="0" y1="50" x2="0" y2="60" class="axis odd"></line>
        <circle r="5.858449331643022" cy="25" class="day"></circle>
      </g>
      <g class="hour" transform="translate(852, 0)" width="31">
        <line x1="0" y1="45" x2="0" y2="60" class="axis even"></line>
        <circle r="4.142549249642578" cy="25" class="day"></circle>
      </g>
      <g class="hour" transform="translate(886, 0)" width="31">
        <line x1="0" y1="50" x2="0" y2="60" class="axis odd"></line>
        <circle r="4.142549249642578" cy="25" class="day"></circle>
      </g>
    </g>

    <g class="day" transform="translate(0, 277)">
      <line x1="0" y1="60" x2="920" y2="60" class="axis"></line>
      <text class="label" dy="30">Thursday</text>
      <g class="hour" transform="translate(104, 0)" width="31">
        <line x1="0" y1="45" x2="0" y2="60" class="axis even"></line>
        <circle r="8.948929172439199" cy="25" class="day"></circle>
      </g>
      <g class="hour" transform="translate(138, 0)" width="31">
        <line x1="0" y1="50" x2="0" y2="60" class="axis odd"></line>
        <circle r="5.348008084903245" cy="25" class="day"></circle>
      </g>
      <g class="hour" transform="translate(172, 0)" width="31">
        <line x1="0" y1="45" x2="0" y2="60" class="axis even"></line>
        <circle r="4.142549249642578" cy="25" class="day"></circle>
      </g>
      <g class="hour" transform="translate(206, 0)" width="31">
        <line x1="0" y1="50" x2="0" y2="60" class="axis odd"></line>
        <circle r="3.382377298657882" cy="25" class="day"></circle>
      </g>
      <g class="hour" transform="translate(240, 0)" width="31">
        <line x1="0" y1="45" x2="0" y2="60" class="axis even"></line>
        <circle r="0" cy="25" class="day"></circle>
      </g>
      <g class="hour" transform="translate(274, 0)" width="31">
        <line x1="0" y1="50" x2="0" y2="60" class="axis odd"></line>
        <circle r="0" cy="25" class="day"></circle>
      </g>
      <g class="hour" transform="translate(308, 0)" width="31">
        <line x1="0" y1="45" x2="0" y2="60" class="axis even"></line>
        <circle r="0" cy="25" class="day"></circle>
      </g>
      <g class="hour" transform="translate(342, 0)" width="31">
        <line x1="0" y1="50" x2="0" y2="60" class="axis odd"></line>
        <circle r="0" cy="25" class="day"></circle>
      </g>
      <g class="hour" transform="translate(376, 0)" width="31">
        <line x1="0" y1="45" x2="0" y2="60" class="axis even"></line>
        <circle r="2.3917019244124247" cy="25" class="day"></circle>
      </g>
      <g class="hour" transform="translate(410, 0)" width="31">
        <line x1="0" y1="50" x2="0" y2="60" class="axis odd"></line>
        <circle r="2.3917019244124247" cy="25" class="day"></circle>
      </g>
      <g class="hour" transform="translate(444, 0)" width="31">
        <line x1="0" y1="45" x2="0" y2="60" class="axis even"></line>
        <circle r="0" cy="25" class="day"></circle>
      </g>
      <g class="hour" transform="translate(478, 0)" width="31">
        <line x1="0" y1="50" x2="0" y2="60" class="axis odd"></line>
        <circle r="2.3917019244124247" cy="25" class="day"></circle>
      </g>
      <g class="hour" transform="translate(512, 0)" width="31">
        <line x1="0" y1="45" x2="0" y2="60" class="axis even"></line>
        <circle r="2.3917019244124247" cy="25" class="day"></circle>
      </g>
      <g class="hour" transform="translate(546, 0)" width="31">
        <line x1="0" y1="50" x2="0" y2="60" class="axis odd"></line>
        <circle r="4.783403848824849" cy="25" class="day"></circle>
      </g>
      <g class="hour" transform="translate(580, 0)" width="31">
        <line x1="0" y1="45" x2="0" y2="60" class="axis even"></line>
        <circle r="4.142549249642578" cy="25" class="day"></circle>
      </g>
      <g class="hour" transform="translate(614, 0)" width="31">
        <line x1="0" y1="50" x2="0" y2="60" class="axis odd"></line>
        <circle r="0" cy="25" class="day"></circle>
      </g>
      <g class="hour" transform="translate(648, 0)" width="31">
        <line x1="0" y1="45" x2="0" y2="60" class="axis even"></line>
        <circle r="3.382377298657882" cy="25" class="day"></circle>
      </g>
      <g class="hour" transform="translate(682, 0)" width="31">
        <line x1="0" y1="50" x2="0" y2="60" class="axis odd"></line>
        <circle r="2.3917019244124247" cy="25" class="day"></circle>
      </g>
      <g class="hour" transform="translate(716, 0)" width="31">
        <line x1="0" y1="45" x2="0" y2="60" class="axis even"></line>
        <circle r="2.3917019244124247" cy="25" class="day"></circle>
      </g>
      <g class="hour" transform="translate(750, 0)" width="31">
        <line x1="0" y1="50" x2="0" y2="60" class="axis odd"></line>
        <circle r="0" cy="25" class="day"></circle>
      </g>
      <g class="hour" transform="translate(784, 0)" width="31">
        <line x1="0" y1="45" x2="0" y2="60" class="axis even"></line>
        <circle r="0" cy="25" class="day"></circle>
      </g>
      <g class="hour" transform="translate(818, 0)" width="31">
        <line x1="0" y1="50" x2="0" y2="60" class="axis odd"></line>
        <circle r="5.858449331643022" cy="25" class="day"></circle>
      </g>
      <g class="hour" transform="translate(852, 0)" width="31">
        <line x1="0" y1="45" x2="0" y2="60" class="axis even"></line>
        <circle r="3.382377298657882" cy="25" class="day"></circle>
      </g>
      <g class="hour" transform="translate(886, 0)" width="31">
        <line x1="0" y1="50" x2="0" y2="60" class="axis odd"></line>
        <circle r="6.327848502189877" cy="25" class="day"></circle>
      </g>
    </g>

    <g class="day" transform="translate(0, 210)">
      <line x1="0" y1="60" x2="920" y2="60" class="axis"></line>
      <text class="label" dy="30">Wednesday</text>
      <g class="hour" transform="translate(104, 0)" width="31">
        <line x1="0" y1="45" x2="0" y2="60" class="axis even"></line>
        <circle r="0" cy="25" class="day"></circle>
      </g>
      <g class="hour" transform="translate(138, 0)" width="31">
        <line x1="0" y1="50" x2="0" y2="60" class="axis odd"></line>
        <circle r="2.3917019244124247" cy="25" class="day"></circle>
      </g>
      <g class="hour" transform="translate(172, 0)" width="31">
        <line x1="0" y1="45" x2="0" y2="60" class="axis even"></line>
        <circle r="0" cy="25" class="day"></circle>
      </g>
      <g class="hour" transform="translate(206, 0)" width="31">
        <line x1="0" y1="50" x2="0" y2="60" class="axis odd"></line>
        <circle r="0" cy="25" class="day"></circle>
      </g>
      <g class="hour" transform="translate(240, 0)" width="31">
        <line x1="0" y1="45" x2="0" y2="60" class="axis even"></line>
        <circle r="2.3917019244124247" cy="25" class="day"></circle>
      </g>
      <g class="hour" transform="translate(274, 0)" width="31">
        <line x1="0" y1="50" x2="0" y2="60" class="axis odd"></line>
        <circle r="0" cy="25" class="day"></circle>
      </g>
      <g class="hour" transform="translate(308, 0)" width="31">
        <line x1="0" y1="45" x2="0" y2="60" class="axis even"></line>
        <circle r="0" cy="25" class="day"></circle>
      </g>
      <g class="hour" transform="translate(342, 0)" width="31">
        <line x1="0" y1="50" x2="0" y2="60" class="axis odd"></line>
        <circle r="3.382377298657882" cy="25" class="day"></circle>
      </g>
      <g class="hour" transform="translate(376, 0)" width="31">
        <line x1="0" y1="45" x2="0" y2="60" class="axis even"></line>
        <circle r="4.783403848824849" cy="25" class="day"></circle>
      </g>
      <g class="hour" transform="translate(410, 0)" width="31">
        <line x1="0" y1="50" x2="0" y2="60" class="axis odd"></line>
        <circle r="3.382377298657882" cy="25" class="day"></circle>
      </g>
      <g class="hour" transform="translate(444, 0)" width="31">
        <line x1="0" y1="45" x2="0" y2="60" class="axis even"></line>
        <circle r="3.382377298657882" cy="25" class="day"></circle>
      </g>
      <g class="hour" transform="translate(478, 0)" width="31">
        <line x1="0" y1="50" x2="0" y2="60" class="axis odd"></line>
        <circle r="3.382377298657882" cy="25" class="day"></circle>
      </g>
      <g class="hour" transform="translate(512, 0)" width="31">
        <line x1="0" y1="45" x2="0" y2="60" class="axis even"></line>
        <circle r="4.783403848824849" cy="25" class="day"></circle>
      </g>
      <g class="hour" transform="translate(546, 0)" width="31">
        <line x1="0" y1="50" x2="0" y2="60" class="axis odd"></line>
        <circle r="6.764754597315764" cy="25" class="day"></circle>
      </g>
      <g class="hour" transform="translate(580, 0)" width="31">
        <line x1="0" y1="45" x2="0" y2="60" class="axis even"></line>
        <circle r="3.382377298657882" cy="25" class="day"></circle>
      </g>
      <g class="hour" transform="translate(614, 0)" width="31">
        <line x1="0" y1="50" x2="0" y2="60" class="axis odd"></line>
        <circle r="4.783403848824849" cy="25" class="day"></circle>
      </g>
      <g class="hour" transform="translate(648, 0)" width="31">
        <line x1="0" y1="45" x2="0" y2="60" class="axis even"></line>
        <circle r="4.783403848824849" cy="25" class="day"></circle>
      </g>
      <g class="hour" transform="translate(682, 0)" width="31">
        <line x1="0" y1="50" x2="0" y2="60" class="axis odd"></line>
        <circle r="6.327848502189877" cy="25" class="day"></circle>
      </g>
      <g class="hour" transform="translate(716, 0)" width="31">
        <line x1="0" y1="45" x2="0" y2="60" class="axis even"></line>
        <circle r="4.783403848824849" cy="25" class="day"></circle>
      </g>
      <g class="hour" transform="translate(750, 0)" width="31">
        <line x1="0" y1="50" x2="0" y2="60" class="axis odd"></line>
        <circle r="7.175105773237274" cy="25" class="day"></circle>
      </g>
      <g class="hour" transform="translate(784, 0)" width="31">
        <line x1="0" y1="45" x2="0" y2="60" class="axis even"></line>
        <circle r="5.348008084903245" cy="25" class="day"></circle>
      </g>
      <g class="hour" transform="translate(818, 0)" width="31">
        <line x1="0" y1="50" x2="0" y2="60" class="axis odd"></line>
        <circle r="7.563225565351132" cy="25" class="day"></circle>
      </g>
      <g class="hour" transform="translate(852, 0)" width="31">
        <line x1="0" y1="45" x2="0" y2="60" class="axis even"></line>
        <circle r="15.5" cy="25" class="day"></circle>
      </g>
      <g class="hour" transform="translate(886, 0)" width="31">
        <line x1="0" y1="50" x2="0" y2="60" class="axis odd"></line>
        <circle r="9.566807697649699" cy="25" class="day"></circle>
      </g>
    </g>

    <g class="day" transform="translate(0, 143)">
      <line x1="0" y1="60" x2="920" y2="60" class="axis"></line>
      <text class="label" dy="30">Tuesday</text>
      <g class="hour" transform="translate(104, 0)" width="31">
        <line x1="0" y1="45" x2="0" y2="60" class="axis even"></line>
        <circle r="0" cy="25" class="day"></circle>
      </g>
      <g class="hour" transform="translate(138, 0)" width="31">
        <line x1="0" y1="50" x2="0" y2="60" class="axis odd"></line>
        <circle r="0" cy="25" class="day"></circle>
      </g>
      <g class="hour" transform="translate(172, 0)" width="31">
        <line x1="0" y1="45" x2="0" y2="60" class="axis even"></line>
        <circle r="0" cy="25" class="day"></circle>
      </g>
      <g class="hour" transform="translate(206, 0)" width="31">
        <line x1="0" y1="50" x2="0" y2="60" class="axis odd"></line>
        <circle r="0" cy="25" class="day"></circle>
      </g>
      <g class="hour" transform="translate(240, 0)" width="31">
        <line x1="0" y1="45" x2="0" y2="60" class="axis even"></line>
        <circle r="0" cy="25" class="day"></circle>
      </g>
      <g class="hour" transform="translate(274, 0)" width="31">
        <line x1="0" y1="50" x2="0" y2="60" class="axis odd"></line>
        <circle r="0" cy="25" class="day"></circle>
      </g>
      <g class="hour" transform="translate(308, 0)" width="31">
        <line x1="0" y1="45" x2="0" y2="60" class="axis even"></line>
        <circle r="0" cy="25" class="day"></circle>
      </g>
      <g class="hour" transform="translate(342, 0)" width="31">
        <line x1="0" y1="50" x2="0" y2="60" class="axis odd"></line>
        <circle r="0" cy="25" class="day"></circle>
      </g>
      <g class="hour" transform="translate(376, 0)" width="31">
        <line x1="0" y1="45" x2="0" y2="60" class="axis even"></line>
        <circle r="3.382377298657882" cy="25" class="day"></circle>
      </g>
      <g class="hour" transform="translate(410, 0)" width="31">
        <line x1="0" y1="50" x2="0" y2="60" class="axis odd"></line>
        <circle r="4.142549249642578" cy="25" class="day"></circle>
      </g>
      <g class="hour" transform="translate(444, 0)" width="31">
        <line x1="0" y1="45" x2="0" y2="60" class="axis even"></line>
        <circle r="4.783403848824849" cy="25" class="day"></circle>
      </g>
      <g class="hour" transform="translate(478, 0)" width="31">
        <line x1="0" y1="50" x2="0" y2="60" class="axis odd"></line>
        <circle r="0" cy="25" class="day"></circle>
      </g>
      <g class="hour" transform="translate(512, 0)" width="31">
        <line x1="0" y1="45" x2="0" y2="60" class="axis even"></line>
        <circle r="0" cy="25" class="day"></circle>
      </g>
      <g class="hour" transform="translate(546, 0)" width="31">
        <line x1="0" y1="50" x2="0" y2="60" class="axis odd"></line>
        <circle r="3.382377298657882" cy="25" class="day"></circle>
      </g>
      <g class="hour" transform="translate(580, 0)" width="31">
        <line x1="0" y1="45" x2="0" y2="60" class="axis even"></line>
        <circle r="0" cy="25" class="day"></circle>
      </g>
      <g class="hour" transform="translate(614, 0)" width="31">
        <line x1="0" y1="50" x2="0" y2="60" class="axis odd"></line>
        <circle r="2.3917019244124247" cy="25" class="day"></circle>
      </g>
      <g class="hour" transform="translate(648, 0)" width="31">
        <line x1="0" y1="45" x2="0" y2="60" class="axis even"></line>
        <circle r="0" cy="25" class="day"></circle>
      </g>
      <g class="hour" transform="translate(682, 0)" width="31">
        <line x1="0" y1="50" x2="0" y2="60" class="axis odd"></line>
        <circle r="0" cy="25" class="day"></circle>
      </g>
      <g class="hour" transform="translate(716, 0)" width="31">
        <line x1="0" y1="45" x2="0" y2="60" class="axis even"></line>
        <circle r="2.3917019244124247" cy="25" class="day"></circle>
      </g>
      <g class="hour" transform="translate(750, 0)" width="31">
        <line x1="0" y1="50" x2="0" y2="60" class="axis odd"></line>
        <circle r="2.3917019244124247" cy="25" class="day"></circle>
      </g>
      <g class="hour" transform="translate(784, 0)" width="31">
        <line x1="0" y1="45" x2="0" y2="60" class="axis even"></line>
        <circle r="3.382377298657882" cy="25" class="day"></circle>
      </g>
      <g class="hour" transform="translate(818, 0)" width="31">
        <line x1="0" y1="50" x2="0" y2="60" class="axis odd"></line>
        <circle r="4.142549249642578" cy="25" class="day"></circle>
      </g>
      <g class="hour" transform="translate(852, 0)" width="31">
        <line x1="0" y1="45" x2="0" y2="60" class="axis even"></line>
        <circle r="0" cy="25" class="day"></circle>
      </g>
      <g class="hour" transform="translate(886, 0)" width="31">
        <line x1="0" y1="50" x2="0" y2="60" class="axis odd"></line>
        <circle r="0" cy="25" class="day"></circle>
      </g>
    </g>

    <g class="day" transform="translate(0, 76)">
      <line x1="0" y1="60" x2="920" y2="60" class="axis"></line>
      <text class="label" dy="30">Monday</text>
      <g class="hour" transform="translate(104, 0)" width="31">
        <line x1="0" y1="45" x2="0" y2="60" class="axis even"></line>
        <circle r="2.3917019244124247" cy="25" class="day"></circle>
      </g>
      <g class="hour" transform="translate(138, 0)" width="31">
        <line x1="0" y1="50" x2="0" y2="60" class="axis odd"></line>
        <circle r="0" cy="25" class="day"></circle>
      </g>
      <g class="hour" transform="translate(172, 0)" width="31">
        <line x1="0" y1="45" x2="0" y2="60" class="axis even"></line>
        <circle r="2.3917019244124247" cy="25" class="day"></circle>
      </g>
      <g class="hour" transform="translate(206, 0)" width="31">
        <line x1="0" y1="50" x2="0" y2="60" class="axis odd"></line>
        <circle r="0" cy="25" class="day"></circle>
      </g>
      <g class="hour" transform="translate(240, 0)" width="31">
        <line x1="0" y1="45" x2="0" y2="60" class="axis even"></line>
        <circle r="0" cy="25" class="day"></circle>
      </g>
      <g class="hour" transform="translate(274, 0)" width="31">
        <line x1="0" y1="50" x2="0" y2="60" class="axis odd"></line>
        <circle r="0" cy="25" class="day"></circle>
      </g>
      <g class="hour" transform="translate(308, 0)" width="31">
        <line x1="0" y1="45" x2="0" y2="60" class="axis even"></line>
        <circle r="0" cy="25" class="day"></circle>
      </g>
      <g class="hour" transform="translate(342, 0)" width="31">
        <line x1="0" y1="50" x2="0" y2="60" class="axis odd"></line>
        <circle r="0" cy="25" class="day"></circle>
      </g>
      <g class="hour" transform="translate(376, 0)" width="31">
        <line x1="0" y1="45" x2="0" y2="60" class="axis even"></line>
        <circle r="0" cy="25" class="day"></circle>
      </g>
      <g class="hour" transform="translate(410, 0)" width="31">
        <line x1="0" y1="50" x2="0" y2="60" class="axis odd"></line>
        <circle r="0" cy="25" class="day"></circle>
      </g>
      <g class="hour" transform="translate(444, 0)" width="31">
        <line x1="0" y1="45" x2="0" y2="60" class="axis even"></line>
        <circle r="0" cy="25" class="day"></circle>
      </g>
      <g class="hour" transform="translate(478, 0)" width="31">
        <line x1="0" y1="50" x2="0" y2="60" class="axis odd"></line>
        <circle r="0" cy="25" class="day"></circle>
      </g>
      <g class="hour" transform="translate(512, 0)" width="31">
        <line x1="0" y1="45" x2="0" y2="60" class="axis even"></line>
        <circle r="0" cy="25" class="day"></circle>
      </g>
      <g class="hour" transform="translate(546, 0)" width="31">
        <line x1="0" y1="50" x2="0" y2="60" class="axis odd"></line>
        <circle r="0" cy="25" class="day"></circle>
      </g>
      <g class="hour" transform="translate(580, 0)" width="31">
        <line x1="0" y1="45" x2="0" y2="60" class="axis even"></line>
        <circle r="0" cy="25" class="day"></circle>
      </g>
      <g class="hour" transform="translate(614, 0)" width="31">
        <line x1="0" y1="50" x2="0" y2="60" class="axis odd"></line>
        <circle r="0" cy="25" class="day"></circle>
      </g>
      <g class="hour" transform="translate(648, 0)" width="31">
        <line x1="0" y1="45" x2="0" y2="60" class="axis even"></line>
        <circle r="0" cy="25" class="day"></circle>
      </g>
      <g class="hour" transform="translate(682, 0)" width="31">
        <line x1="0" y1="50" x2="0" y2="60" class="axis odd"></line>
        <circle r="2.3917019244124247" cy="25" class="day"></circle>
      </g>
      <g class="hour" transform="translate(716, 0)" width="31">
        <line x1="0" y1="45" x2="0" y2="60" class="axis even"></line>
        <circle r="0" cy="25" class="day"></circle>
      </g>
      <g class="hour" transform="translate(750, 0)" width="31">
        <line x1="0" y1="50" x2="0" y2="60" class="axis odd"></line>
        <circle r="3.382377298657882" cy="25" class="day"></circle>
      </g>
      <g class="hour" transform="translate(784, 0)" width="31">
        <line x1="0" y1="45" x2="0" y2="60" class="axis even"></line>
        <circle r="3.382377298657882" cy="25" class="day"></circle>
      </g>
      <g class="hour" transform="translate(818, 0)" width="31">
        <line x1="0" y1="50" x2="0" y2="60" class="axis odd"></line>
        <circle r="2.3917019244124247" cy="25" class="day"></circle>
      </g>
      <g class="hour" transform="translate(852, 0)" width="31">
        <line x1="0" y1="45" x2="0" y2="60" class="axis even"></line>
        <circle r="3.382377298657882" cy="25" class="day"></circle>
      </g>
      <g class="hour" transform="translate(886, 0)" width="31">
        <line x1="0" y1="50" x2="0" y2="60" class="axis odd"></line>
        <circle r="2.3917019244124247" cy="25" class="day"></circle>
      </g>
    </g>

    <g class="day" transform="translate(0, 9)">
      <line x1="0" y1="60" x2="920" y2="60" class="axis"></line>
      <text class="label" dy="30">Sunday</text>
      <g class="hour" transform="translate(104, 0)" width="31">
        <line x1="0" y1="45" x2="0" y2="60" class="axis even"></line>
        <circle r="0" cy="25" class="day"></circle>
      </g>
      <g class="hour" transform="translate(138, 0)" width="31">
        <line x1="0" y1="50" x2="0" y2="60" class="axis odd"></line>
        <circle r="0" cy="25" class="day"></circle>
      </g>
      <g class="hour" transform="translate(172, 0)" width="31">
        <line x1="0" y1="45" x2="0" y2="60" class="axis even"></line>
        <circle r="2.3917019244124247" cy="25" class="day"></circle>
      </g>
      <g class="hour" transform="translate(206, 0)" width="31">
        <line x1="0" y1="50" x2="0" y2="60" class="axis odd"></line>
        <circle r="0" cy="25" class="day"></circle>
      </g>
      <g class="hour" transform="translate(240, 0)" width="31">
        <line x1="0" y1="45" x2="0" y2="60" class="axis even"></line>
        <circle r="0" cy="25" class="day"></circle>
      </g>
      <g class="hour" transform="translate(274, 0)" width="31">
        <line x1="0" y1="50" x2="0" y2="60" class="axis odd"></line>
        <circle r="3.382377298657882" cy="25" class="day"></circle>
      </g>
      <g class="hour" transform="translate(308, 0)" width="31">
        <line x1="0" y1="45" x2="0" y2="60" class="axis even"></line>
        <circle r="3.382377298657882" cy="25" class="day"></circle>
      </g>
      <g class="hour" transform="translate(342, 0)" width="31">
        <line x1="0" y1="50" x2="0" y2="60" class="axis odd"></line>
        <circle r="0" cy="25" class="day"></circle>
      </g>
      <g class="hour" transform="translate(376, 0)" width="31">
        <line x1="0" y1="45" x2="0" y2="60" class="axis even"></line>
        <circle r="2.3917019244124247" cy="25" class="day"></circle>
      </g>
      <g class="hour" transform="translate(410, 0)" width="31">
        <line x1="0" y1="50" x2="0" y2="60" class="axis odd"></line>
        <circle r="5.858449331643022" cy="25" class="day"></circle>
      </g>
      <g class="hour" transform="translate(444, 0)" width="31">
        <line x1="0" y1="45" x2="0" y2="60" class="axis even"></line>
        <circle r="4.142549249642578" cy="25" class="day"></circle>
      </g>
      <g class="hour" transform="translate(478, 0)" width="31">
        <line x1="0" y1="50" x2="0" y2="60" class="axis odd"></line>
        <circle r="6.764754597315764" cy="25" class="day"></circle>
      </g>
      <g class="hour" transform="translate(512, 0)" width="31">
        <line x1="0" y1="45" x2="0" y2="60" class="axis even"></line>
        <circle r="7.175105773237274" cy="25" class="day"></circle>
      </g>
      <g class="hour" transform="translate(546, 0)" width="31">
        <line x1="0" y1="50" x2="0" y2="60" class="axis odd"></line>
        <circle r="2.3917019244124247" cy="25" class="day"></circle>
      </g>
      <g class="hour" transform="translate(580, 0)" width="31">
        <line x1="0" y1="45" x2="0" y2="60" class="axis even"></line>
        <circle r="4.783403848824849" cy="25" class="day"></circle>
      </g>
      <g class="hour" transform="translate(614, 0)" width="31">
        <line x1="0" y1="50" x2="0" y2="60" class="axis odd"></line>
        <circle r="2.3917019244124247" cy="25" class="day"></circle>
      </g>
      <g class="hour" transform="translate(648, 0)" width="31">
        <line x1="0" y1="45" x2="0" y2="60" class="axis even"></line>
        <circle r="0" cy="25" class="day"></circle>
      </g>
      <g class="hour" transform="translate(682, 0)" width="31">
        <line x1="0" y1="50" x2="0" y2="60" class="axis odd"></line>
        <circle r="2.3917019244124247" cy="25" class="day"></circle>
      </g>
      <g class="hour" transform="translate(716, 0)" width="31">
        <line x1="0" y1="45" x2="0" y2="60" class="axis even"></line>
        <circle r="0" cy="25" class="day"></circle>
      </g>
      <g class="hour" transform="translate(750, 0)" width="31">
        <line x1="0" y1="50" x2="0" y2="60" class="axis odd"></line>
        <circle r="5.858449331643022" cy="25" class="day"></circle>
      </g>
      <g class="hour" transform="translate(784, 0)" width="31">
        <line x1="0" y1="45" x2="0" y2="60" class="axis even"></line>
        <circle r="2.3917019244124247" cy="25" class="day"></circle>
      </g>
      <g class="hour" transform="translate(818, 0)" width="31">
        <line x1="0" y1="50" x2="0" y2="60" class="axis odd"></line>
        <circle r="4.783403848824849" cy="25" class="day"></circle>
      </g>
      <g class="hour" transform="translate(852, 0)" width="31">
        <line x1="0" y1="45" x2="0" y2="60" class="axis even"></line>
        <circle r="2.3917019244124247" cy="25" class="day"></circle>
      </g>
      <g class="hour" transform="translate(886, 0)" width="31">
        <line x1="0" y1="50" x2="0" y2="60" class="axis odd"></line>
        <circle r="0" cy="25" class="day"></circle>
      </g>
    </g>

    <g>
      <text text-anchor="middle" transform="translate(104, 500)" class="label">12a</text>
      <text text-anchor="middle" transform="translate(138, 500)" class="label">1a</text>
      <text text-anchor="middle" transform="translate(172, 500)" class="label">2a</text>
      <text text-anchor="middle" transform="translate(206, 500)" class="label">3a</text>
      <text text-anchor="middle" transform="translate(240, 500)" class="label">4a</text>
      <text text-anchor="middle" transform="translate(274, 500)" class="label">5a</text>
      <text text-anchor="middle" transform="translate(308, 500)" class="label">6a</text>
      <text text-anchor="middle" transform="translate(342, 500)" class="label">7a</text>
      <text text-anchor="middle" transform="translate(376, 500)" class="label">8a</text>
      <text text-anchor="middle" transform="translate(410, 500)" class="label">9a</text>
      <text text-anchor="middle" transform="translate(444, 500)" class="label">10a</text>
      <text text-anchor="middle" transform="translate(478, 500)" class="label">11a</text>
      <text text-anchor="middle" transform="translate(512, 500)" class="label">12p</text>
      <text text-anchor="middle" transform="translate(546, 500)" class="label">1p</text>
      <text text-anchor="middle" transform="translate(580, 500)" class="label">2p</text>
      <text text-anchor="middle" transform="translate(614, 500)" class="label">3p</text>
      <text text-anchor="middle" transform="translate(648, 500)" class="label">4p</text>
      <text text-anchor="middle" transform="translate(682, 500)" class="label">5p</text>
      <text text-anchor="middle" transform="translate(716, 500)" class="label">6p</text>
      <text text-anchor="middle" transform="translate(750, 500)" class="label">7p</text>
      <text text-anchor="middle" transform="translate(784, 500)" class="label">8p</text>
      <text text-anchor="middle" transform="translate(818, 500)" class="label">9p</text>
      <text text-anchor="middle" transform="translate(852, 500)" class="label">10p</text>
      <text text-anchor="middle" transform="translate(886, 500)" class="label">11p</text>
    </g>
  </g>
</svg>
